<svg version="1.1" 
    xmlns="http://www.w3.org/2000/svg" 
    xmlns:xlink="http://www.w3.org/1999/xlink" x="0px" y="0px" width="111px" height="111px" viewBox="-55 0 111 111" enable-background="new -55 0 111 111" xml:space="preserve">
    <path fill="#FFFFFF" d="M54.102,54.342c-0.788-0.816-1.575-1.633-2.363-2.45c-2.812-2.915-5.622-5.829-8.433-8.743
	C34.61,34.132,25.914,25.116,17.219,16.1C12.101,10.793,6.982,5.486,1.864,0.179C1.348-0.356,0.719,0.435,1.194,0.927
	c0.175,0.181,0.35,0.363,0.523,0.544C2.562,2.346,3.405,3.22,4.249,4.095c3.199,3.317,6.398,6.634,9.597,9.951
	c8.72,9.041,17.439,18.081,26.158,27.122c3.392,3.516,6.782,7.031,10.173,10.547c0.987,1.022,1.975,2.047,2.962,3.071
	c0.16,0.166,0.424,0.523,0.707,0.807c-0.123,0.127-0.247,0.255-0.37,0.383c-0.88,0.913-1.761,1.826-2.64,2.738
	c-3.248,3.368-6.497,6.736-9.745,10.104c-8.723,9.044-17.444,18.087-26.167,27.132c-3.344,3.468-6.689,6.935-10.033,10.401
	c-0.951,0.987-1.904,1.976-2.856,2.962c-0.133,0.14-0.884,0.843-1.04,1.328c0,0.094,0,0.188,0,0.281
	c0.057,0.115,0.202,0.188,0.492,0.188c0.429,0,0.946-0.77,1.206-1.037c0.821-0.852,1.641-1.701,2.462-2.553
	c2.857-2.962,5.713-5.924,8.57-8.886c8.706-9.026,17.411-18.052,26.115-27.077c5.001-5.185,10-10.368,15-15.552
	c0.035-0.036,0.05-0.071,0.073-0.107c0.035-0.021,0.062-0.049,0.082-0.078c0-0.032,0-0.065,0-0.099c0-0.061,0-0.121,0-0.181
	c0-0.021,0-0.043,0-0.064C54.829,55.048,54.238,54.483,54.102,54.342z"/>
    <path fill="#FFFFFF" d="M-53.109,54.342c0.789-0.816,1.576-1.633,2.364-2.45c2.811-2.915,5.622-5.829,8.432-8.743
	c8.696-9.017,17.393-18.032,26.088-27.049C-11.107,10.793-5.989,5.486-0.869,0.179C-0.354-0.356,0.276,0.435-0.2,0.927
	C-0.375,1.108-0.55,1.29-0.723,1.471C-1.569,2.346-2.41,3.22-3.254,4.095c-3.2,3.317-6.398,6.634-9.598,9.951
	c-8.719,9.041-17.438,18.081-26.158,27.122c-3.392,3.516-6.782,7.031-10.173,10.547c-0.986,1.022-1.974,2.047-2.962,3.071
	c-0.16,0.166-0.422,0.523-0.706,0.807c0.123,0.127,0.246,0.255,0.37,0.383c0.88,0.913,1.76,1.826,2.64,2.738
	c3.249,3.368,6.497,6.736,9.745,10.104c8.723,9.044,17.444,18.087,26.166,27.132c3.344,3.468,6.69,6.935,10.033,10.401
	c0.952,0.987,1.904,1.976,2.857,2.962c0.133,0.14,0.883,0.843,1.04,1.328c0,0.094,0,0.188,0,0.281
	c-0.056,0.115-0.202,0.188-0.493,0.188c-0.428,0-0.946-0.77-1.205-1.037c-0.821-0.852-1.641-1.701-2.461-2.553
	c-2.856-2.962-5.712-5.924-8.57-8.886c-8.706-9.026-17.41-18.052-26.115-27.077c-5.001-5.185-10-10.368-15-15.552
	c-0.035-0.036-0.049-0.071-0.072-0.107c-0.036-0.021-0.062-0.049-0.083-0.078c0-0.032,0-0.065,0-0.099c0-0.061,0-0.121,0-0.181
	c0-0.021,0-0.043,0-0.064C-53.835,55.048-53.244,54.483-53.109,54.342z"/>
</svg>